<?xml version="1.0" encoding="UTF-8"?>
<!-- Uploaded to: ICON Repo, www.svgrepo.com, Generator: ICON Repo Mixer Tools -->
<svg fill="#000000" width="800px" height="800px" version="1.1" viewBox="144 144 512 512" xmlns="http://www.w3.org/2000/svg">
 <g>
  <path d="m555.48 277.06c-0.46875-0.19922-0.93359-0.39844-1.4219-0.55469-0.43359-0.13672-0.87109-0.23047-1.3125-0.33203-0.47656-0.11328-0.94922-0.23438-1.4375-0.30859-0.49609-0.074219-0.99609-0.09375-1.5-0.125-0.36328-0.023438-0.71484-0.089844-1.082-0.089844l-293.03-0.003906c-5.6758 0-11.324 2.3047-14.746 6.832-5.4531 7.2188-4.543 16.949 1.4922 23.008l86.879 87.195c5.5977 5.6172 14.27 6.7695 21.137 2.8047l205.08-118.4c-0.019531-0.007813-0.039062-0.019532-0.058594-0.027344z"/>
  <path d="m360.95 413.66c-6.8672 3.9648-10.207 12.051-8.1406 19.707l32.078 118.84c1.8398 6.8281 7.6133 11.871 14.621 12.785 0.76172 0.10156 1.5195 0.14844 2.2734 0.14844 6.1914 0 11.996-3.2852 15.145-8.7461l146.95-254.52c0.17188-0.30078 0.28125-0.62109 0.4375-0.92578 0.23828-0.47266 0.48047-0.9375 0.67578-1.4297 0.17188-0.4375 0.29297-0.87891 0.42578-1.3242 0.14063-0.46094 0.28906-0.91406 0.39063-1.3867 0.10156-0.46875 0.15234-0.93359 0.21484-1.4062 0.007813-0.046875 0.011719-0.097656 0.015625-0.14453z"/>
 </g>
</svg>