<?xml version="1.0" encoding="UTF-8"?>
<!-- Uploaded to: ICON Repo, www.svgrepo.com, Generator: ICON Repo Mixer Tools -->
<svg fill="#000000" width="800px" height="800px" version="1.1" viewBox="144 144 512 512" xmlns="http://www.w3.org/2000/svg">
 <g fill-rule="evenodd">
  <path d="m442.5 430.96c0.39453-1.75-0.023437-3.582-1.1445-4.9844-1.1172-1.3984-2.8125-2.2148-4.6094-2.2148h-227.56c-19.621 0-35.547 15.926-35.547 35.547 0 19.617 15.926 35.547 35.547 35.547h214.13c2.7539 0 5.1406-1.9062 5.75-4.5938l13.43-59.301zm55.055-7.1992c-2.7539 0-5.1406 1.9062-5.75 4.5938l-13.434 59.301c-0.39453 1.75 0.023438 3.582 1.1445 4.9844 1.1172 1.3984 2.8164 2.2148 4.6094 2.2148h50.223c19.617 0 35.547-15.926 35.547-35.547s-15.93-35.547-35.547-35.547zm-68.188 11.793-10.758 47.508h-209.42c-13.109 0-23.754-10.641-23.754-23.754 0-13.109 10.645-23.754 23.754-23.754h220.18zm72.898 0h32.078c13.109 0 23.754 10.645 23.754 23.754s-10.645 23.754-23.754 23.754h-42.84z"/>
  <path d="m516.73 371.7c0.39453-1.75-0.023437-3.582-1.1445-4.9844-1.1172-1.3984-2.8164-2.2188-4.6094-2.2188h-60.805c-2.7539 0-5.1406 1.9062-5.75 4.5938l-35.965 158.79c-4.3359 19.137 7.6836 38.188 26.816 42.523 19.137 4.3359 38.191-7.6836 42.523-26.816l38.934-171.89zm-13.133 4.5938-37.301 164.69c-2.8945 12.789-15.629 20.816-28.414 17.922-12.785-2.8945-20.816-15.629-17.922-28.414l34.922-154.2zm-45.742-66.5c-0.39453 1.75 0.023437 3.582 1.1445 4.9844 1.1172 1.3984 2.8125 2.2188 4.6055 2.2188h60.805c2.7539 0 5.1445-1.9062 5.75-4.5938l9.2656-40.906c4.3359-19.137-7.6836-38.191-26.816-42.523-19.133-4.3359-38.188 7.6836-42.523 26.816l-12.23 54.004zm13.133-4.5938 10.602-46.809c2.8945-12.785 15.629-20.816 28.414-17.922 12.785 2.8945 20.816 15.629 17.922 28.414l-8.2266 36.312h-48.715z"/>
  <path d="m338.26 490.26c0.39453-1.75-0.023437-3.582-1.1445-4.9844-1.1172-1.3984-2.8164-2.2188-4.6094-2.2188h-60.805c-2.7539 0-5.1406 1.9062-5.75 4.5938l-9.1094 40.223c-4.3359 19.137 7.6836 38.188 26.816 42.523 19.133 4.3359 38.188-7.6836 42.523-26.816l12.078-53.32zm-13.133 4.5938-10.445 46.121c-2.8945 12.789-15.629 20.816-28.414 17.922-12.785-2.8945-20.816-15.629-17.922-28.414l8.0703-35.629zm-6.6523-239.07-39.086 172.57c-0.39453 1.75 0.023437 3.582 1.1445 4.9844 1.1172 1.3984 2.8164 2.2188 4.6094 2.2188h60.805c2.7539 0 5.1406-1.9062 5.75-4.5938l36.121-159.47c4.3359-19.137-7.6836-38.191-26.816-42.523-19.137-4.3359-38.191 7.6836-42.523 26.816zm-14.164 115.91 25.664-113.31c2.8945-12.785 15.629-20.816 28.414-17.922 12.785 2.8945 20.816 15.629 17.922 28.414l-35.078 154.88h-48.711l11.793-52.062z"/>
  <path d="m317.74 312.39c0.39453-1.75-0.027343-3.582-1.1445-4.9844-1.1172-1.3984-2.8125-2.2148-4.6055-2.2148h-46.969c-19.621 0-35.547 15.926-35.547 35.547 0 19.621 15.926 35.547 35.547 35.547h33.535c2.7539 0 5.1445-1.9062 5.75-4.5938zm55.055-7.1992c-2.7539 0-5.1445 1.9062-5.75 4.5938l-13.434 59.301c-0.39453 1.75 0.027344 3.582 1.1445 4.9844 1.1172 1.3984 2.8125 2.2148 4.6055 2.2148h230.82c19.621 0 35.547-15.926 35.547-35.547 0-19.617-15.926-35.547-35.547-35.547h-217.38zm-68.188 11.793-10.762 47.508h-28.828c-13.109 0-23.754-10.645-23.754-23.754 0-13.109 10.645-23.754 23.754-23.754zm72.895 0h212.67c13.109 0 23.754 10.641 23.754 23.754 0 13.109-10.645 23.754-23.754 23.754h-223.43z"/>
 </g>
</svg>